{"title":"Sr.Avila.S01E12.1280x1080i.h264.HDTV.THoRCuATo.mkv","uid":8787437,"size":1977188589,"categoryP":"video","categoryS":"hd___tv_shows","magnet":"?xt=urn:btih:ef401aa587c74870615091c70d1ac9a6c044aa9e&amp;dn=Sr.Avila.S01E12.1280x1080i.h264.HDTV.THoRCuATo.mkv&amp;tr=udp%3A%2F%2Ftracker.openbittorrent.com%3A80&amp;tr=udp%3A%2F%2Fopen.demonii.com%3A1337&amp;tr=udp%3A%2F%2Ftracker.coppersurfer.tk%3A6969&amp;tr=udp%3A%2F%2Fexodus.desync.com%3A6969","seeders":0,"leechers":1,"uploader":"pp654","files":1,"time":1375859658,"description":"Sr.Avila.S01E12.1280x1080i.h264.HDTV.THoRCuATo.mkv\nFormat                           : Matroska\nFile size                        : 1.84 GiB\nDuration                         : 48mn 8s\nOverall bit rate                 : 5 476 Kbps\nEncoded date                     : UTC 2013-08-07 02:38:47\nWriting application              : mkvmerge v6.3.0 ('You can't stop me!') built on Jun 28 2013 20:09:41\nWriting library                  : libebml v1.3.0 + libmatroska v1.4.0\n\nVideo\nID                               : 1\nFormat                           : AVC\nFormat/Info                      : Advanced Video Codec\nFormat profile                   : &lt;a class=&quot;__cf_email__&quot; href=&quot;/cdn-cgi/l/email-protection&quot; data-cfemail=&quot;afe2cec6c1efe39b819f&quot;&gt;[email&amp;#160;protected]&lt;/a&gt;&lt;script cf-hash='f9e31' type=&quot;text/javascript&quot;&gt;\n/* &lt;![CDATA[ */!function(){try{var t=&quot;currentScript&quot;in document?document.currentScript:function(){for(var t=document.getElementsByTagName(&quot;script&quot;),e=t.length;e--;)if(t[e].getAttribute(&quot;cf-hash&quot;))return t[e]}();if(t&amp;&amp;t.previousSibling){var e,r,n,i,c=t.previousSibling,a=c.getAttribute(&quot;data-cfemail&quot;);if(a){for(e=&quot;&quot;,r=parseInt(a.substr(0,2),16),n=2;a.length-n;n+=2)i=parseInt(a.substr(n,2),16)^r,e+=String.fromCharCode(i);e=document.createTextNode(e),c.parentNode.replaceChild(e,c)}}}catch(u){}}();/* ]]&gt; */&lt;/script&gt;\nFormat settings, CABAC           : No\nFormat settings, ReFrames        : 4 frames\nMuxing mode                      : Container profile=&lt;a class=&quot;__cf_email__&quot; href=&quot;/cdn-cgi/l/email-protection&quot; data-cfemail=&quot;8bdee5e0e5e4fce5cbbfa5bb&quot;&gt;[email&amp;#160;protected]&lt;/a&gt;&lt;script cf-hash='f9e31' type=&quot;text/javascript&quot;&gt;\n/* &lt;![CDATA[ */!function(){try{var t=&quot;currentScript&quot;in document?document.currentScript:function(){for(var t=document.getElementsByTagName(&quot;script&quot;),e=t.length;e--;)if(t[e].getAttribute(&quot;cf-hash&quot;))return t[e]}();if(t&amp;&amp;t.previousSibling){var e,r,n,i,c=t.previousSibling,a=c.getAttribute(&quot;data-cfemail&quot;);if(a){for(e=&quot;&quot;,r=parseInt(a.substr(0,2),16),n=2;a.length-n;n+=2)i=parseInt(a.substr(n,2),16)^r,e+=String.fromCharCode(i);e=document.createTextNode(e),c.parentNode.replaceChild(e,c)}}}catch(u){}}();/* ]]&gt; */&lt;/script&gt;\nCodec ID                         : V_MPEG4/ISO/AVC\nDuration                         : 48mn 8s\nBit rate                         : 4 727 Kbps\nWidth                            : 1 280 pixels\nHeight                           : 1 080 pixels\nDisplay aspect ratio             : 16:9\nFrame rate                       : 59.940 fps\nOriginal frame rate              : 29.970 fps\nColor space                      : YUV\nChroma subsampling               : 4:2:0\nBit depth                        : 8 bits\nScan type                        : Interlaced\nScan order                       : Top Field First\nBits/(Pixel*Frame)               : 0.057\nStream size                      : 1.59 GiB (86%)\n\nAudio #1\nID                               : 2\nFormat                           : AC-3\nFormat/Info                      : Audio Coding 3\nMode extension                   : CM (complete main)\nCodec ID                         : A_AC3\nDuration                         : 48mn 8s\nBit rate mode                    : Constant\nBit rate                         : 448 Kbps\nChannel(s)                       : 6 channels\nChannel positions                : Front: L C R, Side: L R, LFE\nSampling rate                    : 48.0 KHz\nBit depth                        : 16 bits\nVideo delay                      : 135ms\nStream size                      : 154 MiB (8%)\n\nAudio #2\nID                               : 3\nFormat                           : AC-3\nFormat/Info                      : Audio Coding 3\nMode extension                   : CM (complete main)\nCodec ID                         : A_AC3\nDuration                         : 48mn 8s\nBit rate mode                    : Constant\nBit rate                         : 192 Kbps\nChannel(s)                       : 2 channels\nChannel positions                : Front: L R\nSampling rate                    : 48.0 KHz\nBit depth                        : 16 bits\nVideo delay                      : 140ms\nStream size                      : 66.1 MiB (4%)\nLanguage                         : Spanish\n","torrent":{"xt":"urn:btih:ef401aa587c74870615091c70d1ac9a6c044aa9e","amp;dn":"Sr.Avila.S01E12.1280x1080i.h264.HDTV.THoRCuATo.mkv","amp;tr":["udp%3A%2F%2Ftracker.openbittorrent.com%3A80","udp%3A%2F%2Fopen.demonii.com%3A1337","udp%3A%2F%2Ftracker.coppersurfer.tk%3A6969","udp%3A%2F%2Fexodus.desync.com%3A6969"],"infoHash":"ef401aa587c74870615091c70d1ac9a6c044aa9e","infoHashBuffer":{"type":"Buffer","data":[239,64,26,165,135,199,72,112,97,80,145,199,13,26,201,166,192,68,170,158]},"announce":[],"urlList":[]}}